<?xml version="1.0" encoding="UTF-8" standalone="no"?>
<svg
   xmlns:dc="http://purl.org/dc/elements/1.1/"
   xmlns:cc="http://creativecommons.org/ns#"
   xmlns:rdf="http://www.w3.org/1999/02/22-rdf-syntax-ns#"
   xmlns:svg="http://www.w3.org/2000/svg"
   xmlns="http://www.w3.org/2000/svg"
   xmlns:sodipodi="http://sodipodi.sourceforge.net/DTD/sodipodi-0.dtd"
   xmlns:inkscape="http://www.inkscape.org/namespaces/inkscape"
   version="1.0"
   id="svg2394"
   inkscape:export-filename="C:\Documents and Settings\Dylan Kane\Desktop\Cal-athletic-logo.png"
   inkscape:output_extension="org.inkscape.output.svg.inkscape"
   sodipodi:version="0.32"
   inkscape:export-ydpi="29.982681"
   inkscape:export-xdpi="29.982681"
   sodipodi:docname="CalMR.svg.2014_08_13_12_38_43.0.pdf"
   inkscape:version="0.48.5 r10040"
   x="0px"
   y="0px"
   width="1120"
   height="398.23001"
   viewBox="0 0 1120 398.23"
   enable-background="new 0 0 500 398.23"
   xml:space="preserve"><metadata
   id="metadata8"><rdf:RDF><cc:Work
       rdf:about=""><dc:format>image/svg+xml</dc:format><dc:type
         rdf:resource="http://purl.org/dc/dcmitype/StillImage" /><dc:title></dc:title></cc:Work></rdf:RDF></metadata><defs
   id="defs6" />
<sodipodi:namedview
   id="base"
   inkscape:cy="369.01908"
   inkscape:cx="571.45531"
   inkscape:zoom="0.78870295"
   guidetolerance="10.0"
   pagecolor="#ffffff"
   bordercolor="#666666"
   borderopacity="1.0"
   objecttolerance="10.0"
   gridtolerance="10.0"
   inkscape:current-layer="svg2394"
   inkscape:window-y="70"
   inkscape:window-x="304"
   inkscape:window-width="1910"
   inkscape:pageshadow="2"
   inkscape:pageopacity="0.0"
   inkscape:window-height="1342"
   showgrid="false"
   inkscape:window-maximized="0">
	</sodipodi:namedview>
<path
   id="outline"
   sodipodi:nodetypes="csssssscccssscccscccssssssssssssssssssssssssssscccssssssssscccssssssssssccsssccsssc"
   inkscape:export-ydpi="300.10001"
   inkscape:export-xdpi="300.10001"
   d="m 1.223,397.436 c -4.86,-4.859 2.649,-17.598 5.944,-21.82 6.055,-7.761 15.174,-14.637 23.333,-20 16.087,-10.575 30.995,-17.105 49.571,-22.054 26.387,-7.028 53.872,-7.833 81.03,-7.807 81.926,0.078 131.029,8.391 203.398,9.86 5.858,0.12 40.25,1.5 49.244,-6.009 -19.411,-3.825 -32.078,-8.992 -42.078,-15.825 -4.309,-2.943 -14.332,-13.332 -16.832,-18.166 -22.621,15.019 -50.084,29 -78.834,27.75 -13.174,-0.573 -26,-6 -30.666,-13.745 -9.834,8.496 -22.974,12.155 -32.674,13.409 -16.133,2.084 -33.019,-1.971 -45.081,-13.279 -1.612,-1.512 -6.413,-7.134 -7.476,-8.711 -3.104,2.743 -11.229,7.73 -12.847,8.604 -30.457,16.445 -68.911,19.462 -99.636,1.862 C 17.81,294.43 9.298,262.168 11.198,229.752 15.607,154.513 68.865,89.302 127.167,46.282 154.923,25.801 189.033,7.086 223.556,1.662 c 12.904,-2.027 30.476,-4.475 42.182,2.977 12.023,7.655 15.423,21.881 14.002,35.431 -3.239,30.879 -31.46,67.583 -63.239,67.545 -13.665,-0.016 -24.899,-10.44 -21.333,-24.333 3.92,-15.267 19.796,-18.447 33.102,-22.234 10.756,-3.062 19.579,-8.801 18.476,-21.483 -1.145,-13.168 -23.911,-4.616 -31.911,-0.616 -28.029,14.015 -47.417,37.948 -66.008,62.764 -31.186,41.631 -57.46,93.412 -54.166,146.5 1.44,23.199 21.224,47.392 44.947,29.738 12.124,-9.022 17.836,-25.192 24.765,-37.992 8.402,-15.52 18.809,-29.348 31.706,-41.415 13.32,-12.463 28.908,-22.209 46.484,-27.357 7.265,-2.128 15.356,-4.131 22.997,-4.193 16.066,-0.129 14.858,6.621 17.816,3.121 4.07,-4.816 13.375,-3.75 27.375,-3.25 14.493,0.518 19.583,0.25 22.083,6.75 2.678,6.961 -6.822,25.722 -18.083,54.25 -10.6,26.854 -22.04,53.1 -14.5,57 8.192,4.237 20.665,-5.205 27.743,-9.816 7.843,-5.109 11.757,-7.934 15.257,-11.434 -2.157,-30.713 1.432,-68.421 12.942,-97.137 13.779,-34.374 34.177,-66.698 60.308,-92.863 13.564,-13.581 62,-50 78.191,-33.201 7.749,8.04 6.012,24.043 4.594,34.081 -2.049,14.497 -18.894,57.132 -43.785,98.62 -12.338,20.564 -44.667,63.5 -50.667,72.5 -1.333,15.667 6.696,33.719 17,44.333 11.966,12.327 24.588,13.828 39.433,20.107 16.771,7.094 15.766,19.465 5.631,32.128 -21.432,26.777 -48.036,37.107 -80.396,43.432 -37.481,7.326 -83.5,4 -120.987,2.734 -32.23,-1.088 -69.198,-3.955 -101.513,-5.234 -36.127,-1.43 -76.026,-1.066 -108.5,4.501 -11.667,2 -21.408,4.845 -31.333,7.333 -4.535,1.136 -18.807,6.627 -22.946,2.487 M 255.75,238.115 c 5.5,-12 14,-32.25 14.5,-38.25 0.426,-5.111 -19.726,-0.839 -38.75,33.417 -5.366,9.662 -15.75,42.083 -4.5,44.833 11.25,2.75 23.474,-28.489 28.75,-40 z m 185.417,-99.833 c 10.167,-17.917 22.392,-43.69 25.333,-52.417 -5.024,2.977 -20.062,20.487 -30.333,36.75 -12,19 -27.245,53.395 -26.667,64.5 4.672,-5.98 21.995,-31.789 31.667,-48.833 z"
   inkscape:connector-curvature="0"
   style="fill:#000000" />
<path
   id="text"
   d="m 7.998,390.846 c 0.885,-2.912 3.187,-7.373 5.478,-10.311 4.416,-5.66 11.623,-11.795 21.419,-18.234 15.107,-9.93 29.234,-16.214 47.236,-21.008 26.114,-6.956 53.793,-7.539 77.686,-7.539 l 1.276,0.002 c 31.8,0.029 99.796,4.037 149.443,6.965 26.056,1.533 46.635,2.748 53.804,2.893 l 1.282,0.032 c 2.098,0.053 5.607,0.145 9.815,0.145 30.295,0 40.64,-4.743 45.313,-7.425 5.084,-2.917 10.417,-7.083 10,-10 -0.607,-4.247 -11.249,-3.917 -15.235,-4.563 -15.851,-2.566 -29.515,-8.854 -39.334,-15.792 -11.251,-7.948 -18.337,-21.995 -18.337,-21.995 l -7.435,4.935 c -27.222,18.073 -49.721,26.49 -70.806,26.492 -1.085,0 -2.181,-0.023 -3.257,-0.07 -12.145,-0.527 -21.513,-5.483 -24.159,-9.878 l -4.898,-8.135 -7.186,6.207 c -9.643,8.33 -23.121,10.836 -28.469,11.527 -2.359,0.307 -4.75,0.46 -7.107,0.46 -12.293,0 -23.472,-4.134 -31.479,-11.641 -1.181,-1.106 -5.535,-6.216 -6.318,-7.354 l -5.12,-7.437 -6.805,5.922 c -2.393,2.114 -9.849,6.75 -11.351,7.561 -15.509,8.374 -32.661,12.801 -49.598,12.801 -15.263,0 -29.876,-3.748 -42.261,-10.842 C 22.195,287.722 17.741,254.84 19.18,230.22 21.15,196.61 33.398,163.036 55.583,130.434 74.713,102.323 101.107,75.45 131.914,52.719 154.35,36.163 188.679,15.238 224.794,9.565 231.148,8.567 237.9,7.593 244.46,7.593 c 7.415,0 12.97,1.24 16.979,3.795 10.816,6.886 11.123,20.402 10.343,27.847 -2.87,27.346 -28.147,60.377 -55.235,60.379 -5.007,-0.004 -9.479,-1.953 -12.002,-5.208 -1.982,-2.559 -2.531,-5.633 -1.631,-9.136 2.293,-8.932 10.71,-11.861 24.301,-15.622 1.093,-0.302 2.176,-0.602 3.242,-0.906 21.662,-6.165 25.146,-19.647 24.256,-29.87 -0.604,-6.943 -5.488,-14.363 -17.388,-14.363 -11.178,0 -24.58,6.539 -26.071,7.284 -29.603,14.801 -49.451,39.251 -68.834,65.125 -39.934,53.31 -58.689,104.378 -55.748,151.791 1.293,20.832 15.69,43.314 36.696,43.314 7.118,0 14.187,-2.574 21.011,-7.654 10.957,-8.151 17.143,-20.755 22.604,-31.874 1.512,-3.082 2.942,-5.994 4.42,-8.728 8.258,-15.25 18.074,-28.903 30.095,-40.151 13.263,-12.408 27.198,-20.337 42.5,-25.333 8.167,-2.667 15.492,-3.813 24.5,-3.667 8.492,0.137 13,5.5 15,9 1.5,-2.917 3.833,-8.083 4.75,-8.833 0.841,-0.688 15.44,-0.62 20,-0.417 3.75,0.167 15.354,0.112 16.75,1.625 1.647,1.787 -3,11.5 -8.153,25.309 -2.392,6.407 -5.909,14.165 -9.566,23.701 -1.423,3.712 -2.874,7.409 -4.293,11.032 -11.631,29.666 -19.314,49.266 -6.413,55.938 2.517,1.302 5.322,1.962 8.339,1.962 9.224,0 18.471,-6.187 25.222,-10.704 0.79,-0.527 1.534,-1.025 2.226,-1.477 7.904,-5.15 12.397,-8.33 16.545,-12.48 l 2.581,-2.578 -0.256,-3.638 c -2.313,-32.91 2.436,-68.774 12.389,-93.601 13.827,-34.499 34.072,-65.684 58.541,-90.185 12.268,-12.285 43.079,-34.595 60.007,-34.988 14.333,-0.333 10.305,24.905 9,30.833 -2.833,12.874 -17.924,52.878 -42.527,93.884 -8.311,13.852 -26.416,38.8 -38.396,55.309 -5.647,7.784 -10.108,13.93 -12.067,16.869 l -1.14,1.71 -0.175,2.049 c -1.661,19.547 8.462,39.489 19.232,50.585 10.098,10.404 20.793,14.163 31.134,17.798 3.544,1.247 7.209,2.534 10.921,4.105 3.188,1.349 7.153,3.602 7.933,6.68 0.77,3.04 -1.209,7.807 -5.429,13.08 -21.502,26.867 -49.083,35.38 -75.687,40.579 -15.301,2.99 -33.901,4.443 -56.862,4.445 -15.454,0 -30.854,-0.621 -45.747,-1.221 -5.665,-0.229 -11.207,-0.451 -16.573,-0.634 -17.073,-0.576 -35.808,-1.674 -53.927,-2.735 -15.911,-0.932 -32.363,-1.897 -47.539,-2.498 -12.027,-0.477 -23.625,-0.717 -34.472,-0.717 -29.61,0 -55.078,1.794 -75.696,5.327 -9.311,1.598 -17.356,3.688 -25.137,5.711 -2.27,0.592 -4.527,1.179 -6.792,1.747 -0.987,0.246 -2.176,0.61 -3.554,1.029 -2.852,0.87 -7.33,2.233 -10.669,2.629 l 0,0 z M 267.5,190.49 c -8.125,0.25 -27.5,10.25 -42.993,38.907 -3.615,6.687 -14.823,34.503 -8.751,48.388 1.835,4.198 5.154,7.077 9.345,8.1 1.083,0.267 2.2,0.4 3.314,0.4 13.666,0.002 23.238,-19.119 32.64,-40.426 0.734,-1.661 1.394,-3.156 1.971,-4.411 2.405,-5.253 12.555,-28.676 14.56,-37.499 1.248,-5.5 1.664,-13.82 -10.086,-13.459 z M 474.167,74.449 c -3.201,-1.766 -11.745,4.534 -11.745,4.534 -16.361,12.992 -28.658,29.088 -39.255,47.633 -28,49 -25.417,87.5 -25.417,87.5 0,0 14.606,-16.627 18.052,-22.074 4.698,-7.426 22.376,-32.285 32.323,-49.811 10.664,-18.792 22.918,-44.801 25.956,-53.808 0,0 4.919,-11.308 0.086,-13.974 z"
   inkscape:connector-curvature="0"
   style="fill:#000000" />
<text
   xml:space="preserve"
   style="font-size:121.16684723px;font-style:normal;font-weight:normal;line-height:125%;letter-spacing:0px;word-spacing:0px;fill:#000000;fill-opacity:1;stroke:none;font-family:Sans"
   x="502.29428"
   y="321.32693"
   id="text2985"
   sodipodi:linespacing="125%"
   transform="scale(0.98578818,1.0144167)"><tspan
     sodipodi:role="line"
     id="tspan2987"
     x="502.29428"
     y="321.32693"
     style="font-size:436.20065308px;font-style:normal;font-variant:normal;font-weight:normal;font-stretch:normal;font-family:Cambria;-inkscape-font-specification:Cambria Italic">MR</tspan></text>

</svg>